<?xml version="1.0" standalone="no"?>
<!DOCTYPE svg PUBLIC "-//W3C//DTD SVG 20010904//EN"
 "http://www.w3.org/TR/2001/REC-SVG-20010904/DTD/svg10.dtd">
<svg version="1.0" xmlns="http://www.w3.org/2000/svg"
 width="864.000000pt" height="1080.000000pt" viewBox="0 0 864.000000 1080.000000"
 preserveAspectRatio="xMidYMid meet">

<g transform="translate(0.000000,1080.000000) scale(0.100000,-0.100000)"
fill="#000000" stroke="none">
<path d="M3807 6718 c-49 -4 -119 -17 -155 -28 -58 -17 -75 -28 -127 -82 -82
-86 -123 -139 -180 -233 -27 -44 -51 -82 -54 -85 -7 -5 -26 -48 -31 -65 -1 -5
-11 -23 -22 -38 -11 -15 -17 -35 -14 -43 3 -8 2 -12 -4 -9 -6 3 -11 1 -11 -4
-3 -20 -5 -26 -17 -47 -23 -42 -32 -117 -33 -255 0 -142 -8 -184 -38 -194 -9
-3 -52 -38 -96 -79 -44 -41 -83 -72 -87 -70 -4 3 -27 0 -50 -7 -40 -11 -87
-51 -88 -74 0 -5 -33 -31 -74 -57 -40 -26 -98 -67 -129 -92 -30 -25 -65 -46
-76 -46 -35 0 -139 -69 -183 -122 -48 -57 -133 -118 -214 -154 -55 -24 -140
-78 -170 -108 -8 -9 -24 -16 -35 -16 -18 0 -94 -51 -111 -75 -4 -5 -8 -7 -8
-2 0 4 -26 -6 -57 -21 -32 -16 -83 -35 -113 -42 -30 -7 -84 -21 -120 -31 -36
-9 -85 -21 -110 -24 -25 -4 -67 -11 -95 -16 -27 -6 -63 -12 -79 -14 -16 -3
-45 -10 -65 -17 -20 -6 -43 -13 -51 -14 -20 -3 -125 -48 -142 -60 -7 -6 -34
-22 -59 -37 -54 -31 -133 -113 -123 -129 4 -6 3 -8 -3 -5 -12 8 -43 -34 -43
-58 0 -8 -4 -15 -8 -15 -9 0 -30 -60 -39 -109 -2 -13 -14 -32 -27 -42 -33 -26
-45 -61 -55 -159 -10 -105 -7 -160 10 -191 7 -13 12 -30 11 -37 -5 -25 37 -87
105 -155 62 -62 76 -73 118 -96 22 -12 47 -25 55 -30 36 -22 149 -70 190 -81
25 -7 115 -15 202 -17 134 -4 158 -7 172 -22 16 -17 13 -19 -61 -25 -123 -11
-439 -56 -538 -76 -110 -23 -210 -59 -198 -71 12 -12 177 -36 333 -48 318 -26
1116 -21 1530 9 80 6 324 24 542 41 l397 29 52 -20 c28 -12 75 -26 103 -32 51
-12 51 -12 -89 -25 -198 -18 -650 -79 -773 -104 -191 -39 190 -68 978 -76 945
-9 2114 50 2677 137 72 11 194 27 270 35 137 14 279 30 548 61 130 14 419 53
560 74 154 24 245 48 245 66 0 15 -58 27 -127 28 -48 0 -47 3 10 31 22 11 49
32 59 46 17 22 18 31 8 71 -9 34 -9 51 -1 67 13 24 2 55 -24 65 -9 3 -14 2
-11 -3 3 -4 -14 -18 -37 -31 l-42 -23 35 32 35 32 -37 -5 c-21 -2 -38 -1 -38
5 0 5 0 12 0 17 0 4 10 7 23 8 51 3 57 5 58 22 0 13 2 14 6 2 11 -28 30 52 22
90 -7 29 -4 39 13 58 19 19 23 40 31 162 l9 141 -47 72 c-100 157 -141 209
-173 222 -37 16 -33 1 -73 275 -18 129 -44 261 -64 330 -18 63 -38 140 -44
170 -10 53 -55 374 -65 475 -11 96 -25 167 -38 183 -7 9 -8 13 -2 9 7 -4 11
16 11 61 0 37 2 124 4 193 3 92 1 130 -9 141 -19 24 -97 39 -179 37 l-73 -2
-54 51 -55 52 -93 0 c-150 0 -231 -30 -335 -125 l-51 -45 -78 147 c-125 237
-169 269 -461 328 -125 25 -301 40 -458 40 -104 -1 -157 -18 -224 -73 -50 -40
-71 -84 -78 -159 -3 -29 -19 -91 -37 -140 -30 -85 -32 -87 -70 -95 -34 -7 -42
-5 -71 21 -32 28 -150 71 -195 71 -88 0 -225 -65 -344 -165 -58 -47 -82 -62
-91 -55 -7 6 -45 61 -85 123 -40 61 -86 131 -101 153 -16 23 -33 53 -38 67 -5
13 -33 59 -61 101 -79 117 -148 151 -321 155 -46 1 -86 3 -89 5 -3 1 -45 -1
-93 -6z m-89 -83 c-3 -3 -23 -8 -44 -11 l-39 -4 40 13 c38 13 55 13 43 2z
m1928 -4 c-3 -5 1 -14 9 -21 13 -11 14 -10 9 5 -6 15 -3 16 25 10 17 -4 50 -6
74 -5 136 5 173 3 163 -7 -12 -12 -48 -14 -62 -2 -9 8 -14 8 -14 1 0 -13 36
-26 50 -17 5 3 10 1 10 -4 0 -6 -8 -11 -17 -12 -13 0 -14 -2 -4 -6 8 -3 20 2
28 13 12 17 14 17 41 -3 63 -46 216 -73 275 -48 12 5 17 3 17 -9 0 -9 -8 -17
-17 -18 -10 0 -23 -2 -30 -2 -6 -1 -15 -5 -20 -10 -4 -5 -3 -6 3 -3 6 4 20 -1
30 -9 18 -15 18 -15 -4 -11 -12 3 -20 2 -17 -3 6 -10 -44 -44 -53 -36 -3 4 0
12 6 18 27 27 12 42 -55 55 -55 10 -72 10 -70 0 2 -13 -79 -27 -90 -16 -5 5
-34 11 -65 15 -56 7 -58 6 -69 -22 -6 -16 -13 -24 -16 -17 -2 7 1 21 6 32 10
18 8 20 -36 24 -45 3 -44 3 12 5 33 1 88 -4 123 -12 50 -10 66 -10 80 0 15 11
14 14 -13 24 -20 8 -31 8 -33 1 -2 -7 -10 -8 -22 -1 -10 5 -27 7 -37 4 -14 -5
-15 -4 -4 4 11 8 10 11 -5 14 -10 2 -31 1 -46 -3 -15 -4 -30 -4 -33 1 -7 12
-58 2 -70 -14 -5 -7 -20 -18 -32 -25 -18 -9 -22 -9 -17 2 3 8 -14 33 -38 57
-40 40 -41 43 -23 51 28 11 57 11 51 0z m-1638 -22 c18 -6 29 -15 26 -21 -4
-7 -9 -7 -13 0 -3 5 -17 13 -31 17 -21 7 -23 6 -13 -7 7 -8 10 -18 6 -21 -13
-13 -23 -7 -23 16 0 17 -2 19 -9 8 -12 -18 9 -55 23 -41 15 15 26 12 26 -6 0
-9 6 -14 13 -11 6 2 11 9 10 15 -2 7 8 10 25 8 15 -2 21 -1 15 1 -14 5 -18 23
-5 23 4 -1 17 -6 30 -14 23 -12 23 -12 -15 -29 -49 -21 -59 -22 -111 -13 -37
7 -47 5 -66 -13 -20 -19 -25 -20 -35 -7 -6 7 -20 12 -30 9 -10 -3 -22 1 -26 7
-5 7 -1 11 11 9 21 -3 72 24 113 58 30 26 37 27 79 12z m-157 -117 c-7 -2 -18
1 -23 6 -8 8 -4 9 13 5 13 -4 18 -8 10 -11z m1909 8 c0 -5 -2 -10 -4 -10 -3 0
-8 5 -11 10 -3 6 -1 10 4 10 6 0 11 -4 11 -10z m560 -12 c0 -6 -3 -9 -6 -5 -6
6 -78 -31 -126 -65 -16 -11 -28 -15 -28 -9 0 6 20 22 45 37 25 14 42 31 38 36
-3 7 -1 8 5 4 7 -4 20 -2 29 3 24 14 43 14 43 -1z m-214 -9 c7 -13 -13 -29
-36 -28 -9 0 -5 6 10 14 30 17 15 19 -29 4 -18 -6 -35 -9 -38 -6 -3 3 10 10
28 16 46 13 57 13 65 0z m-2419 -38 c-3 -14 2 -20 23 -24 15 -4 30 -12 33 -20
4 -11 0 -13 -16 -9 -12 2 -28 10 -35 15 -10 8 -16 7 -22 -2 -5 -9 -10 -10 -14
-3 -3 6 -2 13 4 17 6 4 7 11 4 17 -4 6 0 14 7 19 20 12 22 11 16 -10z m-107
-9 c6 -12 9 -13 10 -3 0 7 6 11 15 7 8 -3 15 -1 15 4 0 6 7 10 15 10 8 0 15
-4 15 -10 0 -5 0 -13 0 -17 0 -4 -25 -8 -57 -8 -31 -1 -51 1 -45 3 7 2 10 8 6
13 -9 16 -24 10 -24 -10 0 -25 -37 -34 -50 -13 -8 14 -9 14 -10 2 0 -13 -1
-13 -11 0 -8 12 -9 11 -5 -6 8 -25 -26 -60 -46 -48 -7 5 -19 9 -26 10 -11 2
-11 0 0 -14 11 -13 11 -14 -1 -7 -11 6 -13 4 -8 -8 8 -20 -4 -29 -23 -17 -12
8 -11 14 7 37 12 15 26 27 31 26 5 -1 9 5 8 14 -3 37 164 69 184 35z m2154 3
c14 -3 28 -1 31 5 4 6 15 3 29 -7 l24 -18 -42 -11 c-23 -6 -48 -7 -58 -2 -12
6 -18 5 -18 -2 0 -6 -5 -8 -12 -4 -7 5 -9 2 -5 -8 6 -17 -16 -19 -30 -3 -4 4
-2 5 5 1 6 -4 12 -3 12 2 0 14 -28 23 -35 12 -3 -5 -12 -7 -20 -3 -10 3 -15
-1 -15 -12 0 -11 5 -15 14 -12 8 3 20 -1 28 -10 11 -15 10 -16 -12 -9 -14 4
-38 10 -55 13 -60 9 -60 14 -7 43 71 39 88 41 166 25z m-1897 -9 c3 -2 -5 -7
-16 -11 -12 -3 -21 -13 -21 -20 0 -8 -13 -21 -30 -30 -34 -18 -40 -18 -40 -4
0 5 5 7 10 4 9 -6 14 8 11 28 0 4 5 7 12 7 6 0 -6 9 -28 20 l-40 19 69 -4 c38
-3 71 -7 73 -9z m-326 -51 c16 -9 27 -20 24 -24 -3 -5 4 -7 15 -4 10 3 22 13
25 22 8 26 37 19 75 -16 l33 -31 -32 -17 c-19 -9 -30 -22 -28 -29 3 -7 1 -19
-4 -27 -5 -9 -9 -10 -9 -2 0 7 -12 10 -30 8 -18 -3 -28 0 -25 6 4 5 -1 12 -9
15 -20 8 -21 21 -1 21 8 0 12 -4 10 -8 -3 -4 2 -9 10 -13 9 -3 19 3 25 14 6
11 16 17 25 14 8 -4 15 -1 15 6 0 6 5 8 10 5 6 -3 10 -2 10 4 0 5 -9 9 -19 8
-11 0 -18 -4 -16 -7 2 -4 -6 -6 -18 -5 -12 2 -21 7 -20 12 1 5 -11 7 -28 5
-17 -3 -29 0 -29 7 0 6 -11 17 -25 23 -14 6 -25 15 -25 20 0 11 7 10 41 -7z
m209 -14 c0 -12 -29 -23 -42 -15 -6 4 -5 10 3 15 18 11 39 11 39 0z m-265 -31
c-4 6 7 10 25 10 20 0 29 -4 25 -11 -4 -6 -13 -8 -20 -5 -7 2 -16 -2 -19 -10
-3 -8 1 -14 9 -14 8 0 15 -4 15 -9 0 -13 -27 -21 -45 -15 -12 5 -13 9 -4 20
10 12 9 13 -5 8 -9 -3 -16 -13 -16 -22 0 -10 -3 -12 -9 -6 -5 5 -7 21 -4 36 4
24 8 26 30 17 16 -6 22 -6 18 1z m-105 -24 c0 -2 -7 -6 -15 -10 -8 -3 -15 -1
-15 4 0 6 7 10 15 10 8 0 15 -2 15 -4z m3 -28 c21 -23 18 -44 -8 -56 -15 -7
-25 -8 -25 -2 0 6 5 10 12 10 6 0 8 3 5 7 -4 3 -2 12 4 19 7 8 6 14 -2 20 -7
4 -9 3 -5 -4 8 -14 -10 -25 -26 -16 -7 5 -5 11 7 21 23 16 24 16 38 1z m112
-38 c-3 -5 -1 -10 4 -10 12 0 15 -30 4 -31 -30 -3 -61 -12 -86 -24 -32 -16
-55 -20 -43 -7 4 4 11 8 14 8 28 6 51 18 47 24 -3 4 2 13 11 20 11 10 18 10
26 2 7 -7 17 -12 23 -12 5 0 4 4 -4 9 -12 8 -8 31 5 31 3 0 2 -4 -1 -10z m91
-17 c-7 -7 -66 -15 -66 -8 0 9 44 23 58 17 7 -2 11 -6 8 -9z m82 -2 c-10 -16
-16 -18 -32 -8 -21 11 -20 11 4 18 39 11 41 10 28 -10z m-304 -32 c4 6 13 11
19 11 7 -1 3 -8 -8 -18 -11 -9 -20 -23 -20 -29 0 -7 -4 -13 -10 -13 -5 0 -9 7
-9 15 1 8 2 23 3 33 1 13 3 14 10 3 6 -9 11 -10 15 -2z m2051 -118 c-11 -5
-23 -7 -27 -4 -5 2 -8 -1 -8 -8 0 -7 -3 -10 -6 -6 -12 12 8 27 34 26 24 0 25
-1 7 -8z m63 -13 c-3 -7 -12 -14 -22 -14 -13 -2 -13 -1 -1 3 8 2 13 9 10 14
-4 5 -1 9 5 9 7 0 10 -6 8 -12z m-60 -29 c-7 -5 -20 -8 -28 -8 -10 0 -11 2 -2
6 6 2 10 8 7 13 -3 4 4 6 16 3 16 -4 17 -8 7 -14z m49 -5 c-3 -3 -12 -4 -19
-1 -8 3 -5 6 6 6 11 1 17 -2 13 -5z m-87 -409 c13 -14 33 -25 44 -25 19 -1 20
-1 3 -11 -22 -13 -57 -3 -57 17 0 8 -4 14 -9 14 -5 0 -11 7 -15 15 -8 23 8 18
34 -10z m145 5 c3 -5 -3 -6 -14 -3 -10 3 -22 0 -25 -6 -4 -6 -12 -11 -17 -11
-6 0 -7 5 -4 10 3 6 -2 10 -12 11 -16 0 -16 1 1 8 22 8 64 3 71 -9z m-100 0
c3 -6 -1 -7 -9 -4 -18 7 -21 14 -7 14 6 0 13 -4 16 -10z m-1517 -175 c-3 -3
-9 2 -12 12 -6 14 -5 15 5 6 7 -7 10 -15 7 -18z m3667 -145 c-3 -5 -12 -10
-18 -10 -7 0 -6 4 3 10 19 12 23 12 15 0z m-5 -84 c0 -3 -4 -8 -10 -11 -5 -3
-10 -1 -10 4 0 6 5 11 10 11 6 0 10 -2 10 -4z m-3860 -121 c11 -13 10 -14 -4
-9 -9 3 -16 10 -16 15 0 13 6 11 20 -6z m60 -35 c0 -15 -5 -12 -26 11 -19 22
-19 22 4 10 12 -6 22 -16 22 -21z m2218 -165 c-3 -3 -9 2 -12 12 -6 14 -5 15
5 6 7 -7 10 -15 7 -18z m-828 -36 c0 7 5 9 10 6 6 -3 10 -10 10 -15 0 -12 -28
-6 -43 10 -10 12 -9 12 6 1 12 -10 17 -10 17 -2z m330 -123 c0 -12 -5 -7 -19
24 -11 24 -11 24 3 6 9 -11 16 -24 16 -30z m-2825 -16 c-3 -5 -12 -10 -18 -10
-7 0 -6 4 3 10 19 12 23 12 15 0z m1756 -13 c-10 -9 -11 -8 -5 6 3 10 9 15 12
12 3 -3 0 -11 -7 -18z m193 7 c5 -14 4 -15 -9 -4 -17 14 -19 20 -6 20 5 0 12
-7 15 -16z m195 -29 c0 -5 -4 -3 -9 5 -5 8 -9 22 -9 30 0 16 17 -16 18 -35z
m-139 25 c0 -5 -2 -10 -4 -10 -3 0 -8 5 -11 10 -3 6 -1 10 4 10 6 0 11 -4 11
-10z m-345 -10 c-3 -5 -12 -10 -18 -10 -7 0 -6 4 3 10 19 12 23 12 15 0z m45
0 c0 -5 -2 -10 -4 -10 -3 0 -8 5 -11 10 -3 6 -1 10 4 10 6 0 11 -4 11 -10z
m397 -6 c-3 -3 -12 -4 -19 -1 -8 3 -5 6 6 6 11 1 17 -2 13 -5z m-687 -14 c0
-5 -2 -10 -4 -10 -3 0 -8 5 -11 10 -3 6 -1 10 4 10 6 0 11 -4 11 -10z m90 0
c0 -5 -5 -10 -11 -10 -5 0 -7 5 -4 10 3 6 8 10 11 10 2 0 4 -4 4 -10z m834
-16 c5 -14 4 -15 -9 -4 -17 14 -19 20 -6 20 5 0 12 -7 15 -16z m-597 -80 c-3
-3 -12 -4 -19 -1 -8 3 -5 6 6 6 11 1 17 -2 13 -5z m-37 -8 c0 -3 -4 -8 -10
-11 -5 -3 -10 -1 -10 4 0 6 5 11 10 11 6 0 10 -2 10 -4z m-793 -68 c-3 -8 -6
-5 -6 6 -1 11 2 17 5 13 3 -3 4 -12 1 -19z m-922 -7 c3 -5 2 -12 -3 -15 -5 -3
-9 1 -9 9 0 17 3 19 12 6z m475 -35 c0 -3 -4 -8 -10 -11 -5 -3 -10 -1 -10 4 0
6 5 11 10 11 6 0 10 -2 10 -4z m-1840 -10 c0 -2 -8 -10 -17 -17 -16 -13 -17
-12 -4 4 13 16 21 21 21 13z m1950 -13 c0 -5 -13 -17 -28 -27 l-27 -19 24 26
c26 28 31 32 31 20z m-265 -23 c-3 -5 -14 -10 -23 -9 -14 0 -13 2 3 9 27 11
27 11 20 0z m-1625 -10 c0 -5 -5 -10 -11 -10 -5 0 -7 5 -4 10 3 6 8 10 11 10
2 0 4 -4 4 -10z m1684 2 c3 -5 -1 -9 -9 -9 -8 0 -12 4 -9 9 3 4 7 8 9 8 2 0 6
-4 9 -8z m206 4 c0 -2 -8 -10 -17 -17 -16 -13 -17 -12 -4 4 13 16 21 21 21 13z
m-1210 -51 c0 -5 -5 -3 -10 5 -5 8 -10 20 -10 25 0 6 5 3 10 -5 5 -8 10 -19
10 -25z m1070 31 c0 -3 -4 -8 -10 -11 -5 -3 -10 -1 -10 4 0 6 5 11 10 11 6 0
10 -2 10 -4z m181 -19 c-10 -9 -11 -8 -5 6 3 10 9 15 12 12 3 -3 0 -11 -7 -18z
m229 9 c0 -3 -4 -8 -10 -11 -5 -3 -10 -1 -10 4 0 6 5 11 10 11 6 0 10 -2 10
-4z m-2637 -21 c-3 -9 -8 -14 -10 -11 -3 3 -2 9 2 15 9 16 15 13 8 -4z m2076
12 c-2 -1 -13 -9 -24 -17 -19 -14 -19 -14 -6 3 7 9 18 17 24 17 6 0 8 -1 6 -3z
m-59 -31 c0 -2 -7 -9 -15 -16 -13 -11 -14 -10 -9 4 5 14 24 23 24 12z m635 -5
c3 -5 2 -12 -3 -15 -5 -3 -9 1 -9 9 0 17 3 19 12 6z m-1875 -25 c0 -2 -8 -10
-17 -17 -16 -13 -17 -12 -4 4 13 16 21 21 21 13z m2090 -9 c0 -2 -10 -12 -22
-23 l-23 -19 19 23 c18 21 26 27 26 19z m200 -131 c0 -2 -8 -10 -17 -17 -16
-13 -17 -12 -4 4 13 16 21 21 21 13z m3815 -526 c3 -6 -1 -7 -9 -4 -18 7 -21
14 -7 14 6 0 13 -4 16 -10z m60 -70 c-32 -11 -61 -17 -63 -15 -7 7 61 31 92
32 22 1 14 -4 -29 -17z m-4895 -140 c6 -11 8 -20 6 -20 -3 0 -10 9 -16 20 -6
11 -8 20 -6 20 3 0 10 -9 16 -20z"/>
<path d="M5604 6608 c-5 -7 -3 -8 6 -3 9 5 22 -2 38 -21 13 -16 21 -23 18 -16
-4 7 -1 13 8 13 31 3 35 4 46 17 7 9 7 9 -2 2 -8 -6 -17 -5 -27 3 -12 9 -13 9
-7 0 11 -19 -29 -17 -44 2 -15 18 -26 19 -36 3z"/>
<path d="M5820 6609 c0 -5 -4 -8 -8 -5 -5 3 -9 -1 -9 -9 0 -10 4 -12 12 -5 7
5 15 7 19 3 4 -4 4 0 0 10 -7 19 -14 22 -14 6z"/>
<path d="M5936 6577 c3 -10 9 -15 12 -12 3 3 0 11 -7 18 -10 9 -11 8 -5 -6z"/>
<path d="M3495 6430 c3 -5 8 -10 11 -10 2 0 4 5 4 10 0 6 -5 10 -11 10 -5 0
-7 -4 -4 -10z"/>
<path d="M3417 6383 c-10 -10 -8 -23 4 -23 5 0 8 4 4 9 -3 5 3 12 12 14 14 4
15 5 2 6 -9 0 -19 -2 -22 -6z"/>
<path d="M5576 6393 c-6 -14 -5 -15 5 -6 7 7 10 15 7 18 -3 3 -9 -2 -12 -12z"/>
<path d="M3583 6341 c1 -17 4 -18 22 -8 11 6 24 10 28 9 5 -1 6 2 2 8 -3 5
-17 10 -30 10 -17 0 -23 -5 -22 -19z"/>
<path d="M3596 6272 c-3 -5 1 -9 9 -9 8 0 12 4 9 9 -3 4 -7 8 -9 8 -2 0 -6 -4
-9 -8z"/>
</g>
</svg>
